<?xml version="1.0" encoding="UTF-8" standalone="no"?>
<!DOCTYPE svg PUBLIC "-//W3C//DTD SVG 1.1//EN" "http://www.w3.org/Graphics/SVG/1.1/DTD/svg11.dtd">
<svg width="100%" height="100%" viewBox="0 0 1080 1080" version="1.1" xmlns="http://www.w3.org/2000/svg" xmlns:xlink="http://www.w3.org/1999/xlink" xml:space="preserve" xmlns:serif="http://www.serif.com/" style="fill-rule:evenodd;clip-rule:evenodd;stroke-linejoin:round;stroke-miterlimit:2;">
    <g transform="matrix(1,0,0,1,26,-24)">
        <path d="M882,266L882,198L814,198L814,129L677,129L677,60L403,60L403,130L266,130L266,198L198,198L198,266L130,266L130,471L61,471L61,1019L129,1019L129,951L198,951L198,882L267,882L267,951L335,951L335,1019L472,1019L472,882L608,882L608,1019L745,1019L745,946L814,946L814,876L882,876L882,945L950,945L950,1019L1019,1019L1019,471L950,471L950,266L882,266ZM883,677L745,677L745,745L882,745L882,814L950,814L950,745L883,745L883,677ZM609,677L472,677L472,746L335,746L335,814L472,814L472,746L608,746L608,814L745,814L745,746L609,746L609,677ZM198,677L198,745L129,745L129,814L198,814L198,746L334,746L334,677L198,677ZM472,404L334,404L334,541L472,541L472,404ZM745,404L609,404L609,540L745,540L745,404Z"/>
    </g>
    <path d="M882,266L882,198L814,198L814,129L677,129L677,60L403,60L403,130L266,130L266,198L198,198L198,266L130,266L130,471L61,471L61,1019L129,1019L129,951L198,951L198,882L267,882L267,951L335,951L335,1019L472,1019L472,882L608,882L608,1019L745,1019L745,946L814,946L814,876L882,876L882,945L950,945L950,1019L1019,1019L1019,471L950,471L950,266L882,266ZM883,677L745,677L745,745L882,745L882,814L950,814L950,745L883,745L883,677ZM609,677L472,677L472,746L335,746L335,814L472,814L472,746L608,746L608,814L745,814L745,746L609,746L609,677ZM198,677L198,745L129,745L129,814L198,814L198,746L334,746L334,677L198,677ZM472,404L334,404L334,541L472,541L472,404ZM745,404L609,404L609,540L745,540L745,404Z" style="fill:rgb(33,33,255);"/>
</svg>
